<mxfile host="app.diagrams.net" modified="2023-10-24T09:13:32.242Z" agent="Mozilla/5.0 (Macintosh; Intel Mac OS X 10_15_7) AppleWebKit/605.1.15 (KHTML, like Gecko) Version/16.3 Safari/605.1.15" version="22.0.6" etag="TvyFgv8fpAO_I44nf4_7" type="github">
  <diagram name="第 1 页" id="Mbf8PgOZsWnXYlX6G-Fd">
    <mxGraphModel>
      <root>
        <mxCell id="0" />
        <mxCell id="1" parent="0" />
      </root>
    </mxGraphModel>
  </diagram>
</mxfile>
